HIERARCHY
ROOT Hips
{
	OFFSET	0.00	0.00	0.00
	CHANNELS 6 Xposition Yposition Zposition Zrotation Xrotation Yrotation
	JOINT LeftUpLeg
	{
		OFFSET	 0.126116	-0.014019	-0.065224
		CHANNELS 3 Zrotation Xrotation Yrotation
		JOINT LeftLeg
		{
			OFFSET	 0.000000	 0.000000	 0.569914
			CHANNELS 3 Zrotation Xrotation Yrotation
			JOINT LeftFoot
			{
				OFFSET	 0.000000	 0.000000	 0.544423
				CHANNELS 3 Zrotation Xrotation Yrotation
				JOINT LeftToeBase
				{
					OFFSET	 0.000000	 0.000000	 0.207117
					CHANNELS 3 Zrotation Xrotation Yrotation
					End Site
					{
						OFFSET	 0.000000	 0.000000	 0.207117
					}
				}
			}
		}
	}
	JOINT RightUpLeg
	{
		OFFSET	-0.124023	-0.008373	-0.065224
		CHANNELS 3 Zrotation Xrotation Yrotation
		JOINT RightLeg
		{
			OFFSET	 0.000000	 0.000000	 0.570047
			CHANNELS 3 Zrotation Xrotation Yrotation
			JOINT RightFoot
			{
				OFFSET	 0.000000	 0.000000	 0.544354
				CHANNELS 3 Zrotation Xrotation Yrotation
				JOINT RightToeBase
				{
					OFFSET	 0.000000	 0.000000	 0.207540
					CHANNELS 3 Zrotation Xrotation Yrotation
					End Site
					{
						OFFSET	 0.000000	 0.000000	 0.207540
					}
				}
			}
		}
	}
	JOINT Spine
	{
		OFFSET	 0.000184	-0.007763	 0.117403
		CHANNELS 3 Zrotation Xrotation Yrotation
		JOINT Spine1
		{
			OFFSET	 0.000000	 0.000000	 0.137269
			CHANNELS 3 Zrotation Xrotation Yrotation
			JOINT Spine2
			{
				OFFSET	 0.000000	 0.000000	 0.156879
				CHANNELS 3 Zrotation Xrotation Yrotation
				JOINT LeftShoulder
				{
					OFFSET	 0.080501	-0.002496	 0.160144
					CHANNELS 3 Zrotation Xrotation Yrotation
					JOINT LeftArm
					{
						OFFSET	 0.000000	 0.000000	 0.164363
						CHANNELS 3 Zrotation Xrotation Yrotation
						JOINT LeftForeArm
						{
							OFFSET	 0.000000	 0.000000	 0.364576
							CHANNELS 3 Zrotation Xrotation Yrotation
							JOINT LeftHand
							{
								OFFSET	 0.000000	 0.000000	 0.360812
								CHANNELS 3 Zrotation Xrotation Yrotation
								JOINT LeftHandIndex1
								{
									OFFSET	 0.000000	 0.000000	 0.086006
									CHANNELS 3 Zrotation Xrotation Yrotation
									JOINT LeftHandIndex2
									{
										OFFSET	 0.000000	 0.000000	 0.047236
										CHANNELS 3 Zrotation Xrotation Yrotation
										JOINT LeftHandIndex3
										{
											OFFSET	-0.004284	-0.000551	 0.038166
											CHANNELS 3 Zrotation Xrotation Yrotation
											End Site
											{
												OFFSET	-0.004284	-0.000551	 0.038166
											}
										}
									}
								}
							}
						}
					}
				}
				JOINT Neck
				{
					OFFSET	 0.000000	 0.000000	 0.176489
					CHANNELS 3 Zrotation Xrotation Yrotation
					JOINT Head
					{
						OFFSET	 0.000000	-0.001747	 0.077940
						CHANNELS 3 Zrotation Xrotation Yrotation
						End Site
						{
							OFFSET	 0.000000	-0.001747	 0.077940
						}
					}
				}
				JOINT RightShoulder
				{
					OFFSET	-0.080363	 0.000306	 0.159706
					CHANNELS 3 Zrotation Xrotation Yrotation
					JOINT RightArm
					{
						OFFSET	 0.000000	 0.000000	 0.164196
						CHANNELS 3 Zrotation Xrotation Yrotation
						JOINT RightForeArm
						{
							OFFSET	 0.000000	 0.000000	 0.365611
							CHANNELS 3 Zrotation Xrotation Yrotation
							JOINT RightHand
							{
								OFFSET	 0.000000	 0.000000	 0.360648
								CHANNELS 3 Zrotation Xrotation Yrotation
								JOINT RightHandIndex1
								{
									OFFSET	 0.000000	 0.000000	 0.069977
									CHANNELS 3 Zrotation Xrotation Yrotation
									JOINT RightHandIndex2
									{
										OFFSET	 0.000000	 0.000000	 0.052305
										CHANNELS 3 Zrotation Xrotation Yrotation
										JOINT RightHandIndex3
										{
											OFFSET	 0.009002	-0.000782	 0.042196
											CHANNELS 3 Zrotation Xrotation Yrotation
											End Site
											{
												OFFSET	 0.009002	-0.000782	 0.042196
											}
										}
									}
								}
							}
						}
					}
				}
			}
		}
	}
}
MOTION
Frames:    8
Frame Time: 0.03333334
 7.016625	 6.842526	 1.105629	-179.084000	-0.000014	-0.000013	 4.117246	-1.743471	 179.873500	 3.144691	-11.594560	 1.749916	 4.431090	 71.402270	 1.145380	-2.385832	 28.452790	-0.000001	-4.119452	-2.154259	-179.893100	-3.138409	-11.963990	-1.790670	-4.423576	 71.426400	-1.178366	 2.384659	 28.388700	-0.000001	-7.657657	 3.007533	 0.037808	-12.742790	-1.172906	-0.976394	-15.294230	-1.379821	-1.201645	-91.776180	 78.527400	-180.000000	 12.108180	-5.220949	-1.016094	-4.393903	-0.888979	-0.368805	-18.166230	-0.205563	-4.068540	-3.812334	 37.924440	-2.927599	-2.450526	 36.184240	 0.754587	-1.378229	 35.397820	-2.634230	-0.000002	-3.783157	-0.089647	-3.803763	 0.759780	 0.025256	 89.782090	 78.203830	-180.000000	-12.512950	-5.961371	 1.072636	 4.635281	-0.427221	 0.526681	 18.480990	-1.326610	 8.278512	 6.437017	 35.671460	-0.771858	 2.830251	 35.756010	-7.813440	-2.350882	 35.473990	 5.254307
 7.015214	 6.844788	 1.102242	-90.314030	 0.639369	 3.685534	 5.060245	-3.931473	 176.468000	-11.288960	-33.683550	-5.170030	 171.948400	 86.653380	 179.363100	-2.377600	 30.155910	-0.037257	 1.784928	-12.637330	 178.898300	 3.650479	-47.589190	 5.717026	-175.212500	 82.189300	-178.836800	 2.403671	 22.142350	-0.130237	-8.339970	 1.988413	-2.005483	-12.941460	-0.142734	-0.840394	-15.107020	-1.728822	-1.232762	-91.809550	 77.632390	 179.116300	 36.878340	 69.876440	-39.968290	-7.949108	-3.986160	-19.717950	 5.928229	-2.219657	-5.333909	-3.812334	 37.924440	-2.927599	-2.450526	 36.184240	 0.754587	-1.378229	 35.397820	-2.634230	 0.566514	 6.078562	-3.222020	-3.560147	-13.627150	-2.656814	 89.766010	 79.243180	-179.652900	-36.468650	 70.284520	 39.114590	 4.196703	-7.841374	 30.858260	-11.292280	-3.195479	 9.596871	 6.437017	 35.671460	-0.771858	 2.830251	 35.756010	-7.813440	-2.350882	 35.473990	 5.254307
 7.009574	 6.844927	 1.101879	-90.116190	 0.680063	 3.694496	 5.045234	-4.040395	 176.488900	-11.200410	-33.817910	-5.146624	 171.965700	 86.505810	 179.414900	-2.377139	 30.243370	-0.039192	 1.760824	-12.692030	 178.981800	 3.669489	-47.683500	 5.735591	-175.498000	 82.019550	-178.558100	 2.403667	 22.145380	-0.130173	-8.352985	 2.069923	-2.061398	-12.959550	-0.053006	-0.833400	-15.154250	-1.623139	-1.222690	-91.809810	 77.605580	 179.135400	 36.700240	 69.869260	-39.698770	-8.000362	-4.012809	-20.014740	 5.880639	-2.214853	-5.335574	-3.812334	 37.924440	-2.927599	-2.450526	 36.184240	 0.754587	-1.378229	 35.397820	-2.634230	 0.500623	 6.041594	-3.206633	-3.625382	-13.527740	-2.661270	 89.765160	 79.268920	-179.644100	-36.368960	 70.370420	 39.091210	 4.248856	-7.802840	 30.580250	-11.330020	-3.196391	 9.596467	 6.437017	 35.671460	-0.771858	 2.830251	 35.756010	-7.813440	-2.350882	 35.473990	 5.254307
 7.014477	 6.843848	 1.101489	-89.955800	 0.733904	 3.716802	 5.027607	-4.173344	 176.510200	-11.104600	-33.993640	-5.126772	 171.977000	 86.338100	 179.478900	-2.376468	 30.368830	-0.041976	 1.788902	-12.764100	 178.976200	 3.737738	-47.853680	 5.825078	-175.743200	 81.799220	-178.270300	 2.403627	 22.169660	-0.129690	-8.360982	 2.133801	-2.101926	-12.957610	 0.039112	-0.840411	-15.171810	-1.518408	-1.210261	-91.809580	 77.594740	 179.150400	 36.609410	 69.832810	-39.589520	-8.053276	-4.031565	-20.295010	 5.819393	-2.210325	-5.337124	-3.812334	 37.924440	-2.927599	-2.450526	 36.184240	 0.754587	-1.378229	 35.397820	-2.634230	 0.467102	 5.924796	-3.305768	-3.647450	-13.371950	-2.538897	 89.764490	 79.279340	-179.632500	-36.282790	 70.434870	 39.035180	 4.268613	-7.760938	 30.306090	-11.361030	-3.197525	 9.595797	 6.437017	 35.671460	-0.771858	 2.830251	 35.756010	-7.813440	-2.350882	 35.473990	 5.254307
 7.021359	 6.842624	 1.101111	-89.854290	 0.782448	 3.739338	 5.007888	-4.306263	 176.534100	-11.003460	-34.179240	-5.105872	 171.960200	 86.175100	 179.574300	-2.375772	 30.498230	-0.044851	 1.859745	-12.883700	 178.969700	 3.864378	-48.132350	 6.001385	-176.058400	 81.579320	-177.866300	 2.403541	 22.219440	-0.128682	-8.359874	 2.202690	-2.115579	-12.934880	 0.117458	-0.860792	-15.158790	-1.433908	-1.198033	-91.808590	 77.610410	 179.161500	 36.587780	 69.774440	-39.611220	-8.099813	-4.041171	-20.522000	 5.755835	-2.205425	-5.338677	-3.812334	 37.924440	-2.927599	-2.450526	 36.184240	 0.754587	-1.378229	 35.397820	-2.634230	 0.468877	 5.746418	-3.470267	-3.636263	-13.209530	-2.365618	 89.764300	 79.262390	-179.622700	-36.260330	 70.477380	 39.056120	 4.256582	-7.732659	 30.064270	-11.405820	-3.199308	 9.594837	 6.437017	 35.671460	-0.771858	 2.830251	 35.756010	-7.813440	-2.350882	 35.473990	 5.254307
 7.022987	 6.840969	 1.100677	-89.813850	 0.819927	 3.728678	 5.006392	-4.454102	 176.573700	-10.892330	-34.394910	-5.070907	 172.008000	 85.994400	 179.633300	-2.375048	 30.630630	-0.047805	 1.895109	-13.124560	 178.978500	 4.105072	-48.650400	 6.270012	-176.173000	 81.355660	-177.628100	 2.403120	 22.447000	-0.124073	-8.363771	 2.333716	-2.078455	-12.927650	 0.195518	-0.879580	-15.171030	-1.349810	-1.187880	-91.806450	 77.653940	 179.180100	 36.598120	 69.685880	-39.720880	-8.145770	-4.044058	-20.728950	 5.683429	-2.199955	-5.340354	-3.812334	 37.924440	-2.927599	-2.450526	 36.184240	 0.754587	-1.378229	 35.397820	-2.634230	 0.423856	 5.548233	-3.514915	-3.675360	-13.067660	-2.356563	 89.764880	 79.216010	-179.618800	-36.328290	 70.515920	 39.254720	 4.220868	-7.723815	 29.808970	-11.494700	-3.201558	 9.593619	 6.437017	 35.671460	-0.771858	 2.830251	 35.756010	-7.813440	-2.350882	 35.473990	 5.254307
 7.022782	 6.839280	 1.100281	-89.844350	 0.828736	 3.694361	 5.054029	-4.571396	 176.649800	-10.826320	-34.575050	-5.023040	 172.205900	 85.845690	 179.553300	-2.374573	 30.717670	-0.049739	 2.035141	-13.471500	 179.035900	 4.245538	-49.326290	 6.564300	-176.235400	 81.211010	-177.462100	 2.402283	 22.878370	-0.115330	-8.390865	 2.506478	-1.990693	-12.972100	 0.280417	-0.883994	-15.248200	-1.253874	-1.181226	-91.803600	 77.710660	 179.207400	 36.612610	 69.592710	-39.853930	-8.178402	-4.041431	-20.864860	 5.624626	-2.195680	-5.341681	-3.812334	 37.924440	-2.927599	-2.450526	 36.184240	 0.754587	-1.378229	 35.397820	-2.634230	 0.293305	 5.557690	-3.380982	-3.796641	-13.084880	-2.595150	 89.765950	 79.157050	-179.617900	-36.385770	 70.551860	 39.451160	 4.210187	-7.715930	 29.604550	-11.565650	-3.203252	 9.592682	 6.437017	 35.671460	-0.771858	 2.830251	 35.756010	-7.813440	-2.350882	 35.473990	 5.254307
 7.022534	 6.837152	 1.099818	-89.930490	 0.839761	 3.598058	 5.174460	-4.681075	 176.796300	-10.794610	-34.756420	-4.943596	 172.400900	 85.693660	 179.518300	-2.374221	 30.780310	-0.051147	 2.176096	-14.060610	 179.156400	 4.463411	-50.399710	 6.977366	-176.275200	 81.135060	-177.320900	 2.400694	 23.606530	-0.100485	-8.420308	 2.761680	-1.817891	-13.021840	 0.359691	-0.875845	-15.330860	-1.164312	-1.175721	-91.799690	 77.791800	 179.247900	 36.663320	 69.466590	-40.101660	-8.206106	-4.034414	-20.968640	 5.567350	-2.191866	-5.342872	-3.812334	 37.924440	-2.927599	-2.450526	 36.184240	 0.754587	-1.378229	 35.397820	-2.634230	 0.140365	 5.591074	-3.180166	-3.938131	-13.159330	-2.904317	 89.767940	 79.071320	-179.631600	-36.469510	 70.587710	 39.706280	 4.213347	-7.701430	 29.390620	-11.629280	-3.204958	 9.591728	 6.437017	 35.671460	-0.771858	 2.830251	 35.756010	-7.813440	-2.350882	 35.473990	 5.254307
